<?xml version="1.0" encoding="utf-8"?>
<!-- Generator: Adobe Illustrator 16.0.2, SVG Export Plug-In . SVG Version: 6.00 Build 0)  -->
<!DOCTYPE svg PUBLIC "-//W3C//DTD SVG 1.1//EN" "http://www.w3.org/Graphics/SVG/1.1/DTD/svg11.dtd">
<svg version="1.1" id="Layer_1" xmlns="http://www.w3.org/2000/svg" xmlns:xlink="http://www.w3.org/1999/xlink" x="0px" y="0px"
	 width="595.28px" height="314px" viewBox="0 0 595.28 314" enable-background="new 0 0 595.28 314" xml:space="preserve">
<g>
	<g>
		<g>
			<path fill="#F27C12" d="M547.667,50.631c23.008,23.839,34.512,52.618,34.512,86.335c0,33.722-16.834,68.956-33.667,87.635
				c-35.308,40.85-121.178,55.043-178.596,67.538c-27.098,6.567,1.238-19.461,23.813-53.785c-3.702-3.041-9.079-8.277-14.165-13.549
				c-23.008-23.833-33.053-54.118-33.053-87.84c0-33.718,11.503-62.497,34.511-86.335c23.003-23.832,50.776-35.752,83.322-35.752
				C496.889,14.879,524.664,26.799,547.667,50.631z"/>
		</g>
		<path fill="#FFFFFF" d="M379.837,167.53c6.333,24.694,20.896,41.447,42.425,43.836c21.53,2.39,37.043-3.943,46.541-19.142
			c0,0,23.111-33.558,12.347-82.315c-4.432-18.997-5.697-26.597-10.132-31.027c-4.432-4.432-11.713-7.281-18.996-7.916
			c-7.28-0.631-6.014,5.699-6.014,5.699s6.332,20.262,7.599,24.062s6.332,22.795,4.748,37.993
			c-1.583,15.197-4.116,38.309-25.33,41.791c-18.678,3.165-25.008-21.53-25.642-29.761c0,0-3.802-33.562,2.849-56.99
			c1.42-4.514,3.229-10.446,4.747-14.247c3.167-7.914,4.751-8.591-7.596-7.914c-13.932,2.85-12.983,3.166-14.565,5.698
			c-0.644,1.034-5.578,12.17-8.864,26.595C379.173,124.878,376.087,152.897,379.837,167.53z"/>
		<path fill="#FFFFFF" d="M560.933,110.227c-0.315-4.75-0.949-17.415-8.546-28.812c-12.349-25.642-48.758-12.978-48.758-12.978
			c-21.847,7.913-17.098,16.145-16.147,18.993c0.949,2.85,5.383,19.63,6.649,29.791c1.265,10.161,1.265,29.098-0.949,47.779
			c-2.851,18.677-12.664,35.458-16.781,41.79c-4.115,6.33,6.017,6.33,14.246,5.065c8.231-1.262,8.551-4.432,8.551-4.432
			s5.697-8.547,11.397-24.059c5.697-15.515,7.281-33.878,7.281-33.878s15.195-4.433,21.528-8.093
			C564.415,127.596,560.933,110.227,560.933,110.227z M536.493,116.44c-4.278,2.965-12.511,4.609-12.511,4.609
			c-4.609,0.989-4.279-1.316-4.939-5.597c-0.656-9.877-5.267-25.022-5.267-25.022c-1.317-5.597,0-7.573,7.66-9.548
			c9.305-2.304,11.436-2.633,15.387-0.989c8.89,2.964,9.549,20.086,9.549,20.086C546.372,107.552,540.773,113.478,536.493,116.44z"
			/>
	</g>
	<g>
		<path fill="#fff" d="M16.605,65.818h25.771v36.424c9.965-7.101,21.419-10.652,34.362-10.652
			c16.608,0,30.783,5.871,42.524,17.61c11.739,11.741,17.611,25.916,17.611,42.524c0,16.608-5.872,30.783-17.611,42.522
			c-11.741,11.741-25.916,17.611-42.524,17.611c-16.609,0-30.784-5.87-42.523-17.611c-11.741-11.739-17.611-25.914-17.611-42.522
			V65.818z M52.428,127.412c-6.701,6.701-10.051,14.806-10.051,24.313c0,9.507,3.351,17.611,10.051,24.311
			c6.701,6.7,14.804,10.05,24.311,10.05c9.506,0,17.611-3.35,24.312-10.05c6.7-6.7,10.05-14.803,10.05-24.311
			c0-9.506-3.35-17.611-10.05-24.313c-6.701-6.7-14.806-10.05-24.312-10.05C67.232,117.362,59.129,120.712,52.428,127.412z"/>
		<path fill="#fff" d="M248.122,109.2c11.739,11.741,17.611,25.916,17.611,42.524c0,16.608-5.872,30.783-17.611,42.522
			c-11.741,11.741-25.915,17.611-42.524,17.611s-30.784-5.87-42.523-17.611c-11.741-11.739-17.611-25.914-17.611-42.522
			c0-16.609,5.87-30.783,17.611-42.524c11.739-11.739,25.914-17.61,42.523-17.61S236.381,97.461,248.122,109.2z M205.598,117.362
			c-9.507,0-17.61,3.35-24.311,10.05c-6.7,6.701-10.051,14.806-10.051,24.313c0,9.507,3.351,17.611,10.051,24.311
			c6.701,6.7,14.804,10.05,24.311,10.05s17.611-3.35,24.312-10.05c6.701-6.7,10.05-14.803,10.05-24.311
			c0-9.506-3.35-17.611-10.05-24.313C223.209,120.712,215.105,117.362,205.598,117.362z"/>
		<path fill="#fff" d="M274.323,65.818h25.772V91.59h34.362v25.772h-34.362v34.363c0,9.507,3.35,17.611,10.051,24.311
			c6.701,6.7,14.805,10.05,24.312,10.05v25.772c-16.61,0-30.784-5.87-42.524-17.611c-11.74-11.739-17.61-25.914-17.61-42.522V65.818
			z"/>
	</g>
</g>
</svg>
